<svg width="18" height="17" viewBox="0 0 18 17" fill="none" xmlns="http://www.w3.org/2000/svg">
<path d="M3.16922 16.8896H14.8492C16.1471 16.8896 17.1992 15.8375 17.1992 14.5396V2.85965C17.1992 1.56178 16.1471 0.509644 14.8492 0.509644H3.16922C1.87135 0.509644 0.819229 1.56178 0.819229 2.85965V14.5396C0.819229 15.8375 1.87135 16.8896 3.16922 16.8896Z" fill="#F5F6F7"/>
<path d="M9.01085 9.81004C10.7395 9.81004 12.1409 8.40869 12.1409 6.68004C12.1409 4.95139 10.7395 3.55005 9.01085 3.55005C7.2822 3.55005 5.88086 4.95139 5.88086 6.68004C5.88086 8.40869 7.2822 9.81004 9.01085 9.81004Z" fill="#C4C5C8"/>
<path d="M9.00008 10.78C7.42999 10.78 5.92423 11.4037 4.81401 12.514C3.7038 13.6242 3.08008 15.1299 3.08008 16.7C3.08008 16.76 3.08008 16.82 3.08008 16.89H14.9001C14.9001 16.82 14.9001 16.76 14.9001 16.7C14.9001 15.1334 14.2791 13.6307 13.1732 12.521C12.0673 11.4114 10.5667 10.7853 9.00008 10.78Z" fill="#C4C5C8"/>
</svg>
