<svg xmlns="http://www.w3.org/2000/svg" xmlns:xlink="http://www.w3.org/1999/xlink" width="148" zoomAndPan="magnify" viewBox="0 0 110.88 110.999996" height="148" preserveAspectRatio="xMidYMid meet" version="1.0"><defs><clipPath id="d1304baa69"><path d="M 0 0.0585938 L 110.761719 0.0585938 L 110.761719 110.9375 L 0 110.9375 Z M 0 0.0585938 " clip-rule="nonzero"/></clipPath><clipPath id="e6000cd179"><path d="M 10 72 L 100 72 L 100 110.9375 L 10 110.9375 Z M 10 72 " clip-rule="nonzero"/></clipPath></defs><g clip-path="url(#d1304baa69)"><path fill="#ffffff" d="M 0 0.0585938 L 110.878906 0.0585938 L 110.878906 110.941406 L 0 110.941406 Z M 0 0.0585938 " fill-opacity="1" fill-rule="nonzero"/><path fill="#ffffff" d="M 0 0.0585938 L 110.878906 0.0585938 L 110.878906 110.941406 L 0 110.941406 Z M 0 0.0585938 " fill-opacity="1" fill-rule="nonzero"/><path fill="#f5f6f7" d="M 11.394531 118.667969 L 99.3125 118.667969 C 109.082031 118.667969 117 110.738281 117 100.957031 L 117 12.9375 C 117 3.15625 109.082031 -4.769531 99.3125 -4.769531 L 11.394531 -4.769531 C 1.625 -4.769531 -6.292969 3.15625 -6.292969 12.9375 L -6.292969 100.957031 C -6.292969 110.738281 1.625 118.667969 11.394531 118.667969 Z M 11.394531 118.667969 " fill-opacity="1" fill-rule="nonzero"/></g><path fill="#c4c5c8" d="M 55.367188 65.316406 C 68.378906 65.316406 78.925781 54.753906 78.925781 41.726562 C 78.925781 28.703125 68.378906 18.140625 55.367188 18.140625 C 42.355469 18.140625 31.804688 28.703125 31.804688 41.726562 C 31.804688 54.753906 42.355469 65.316406 55.367188 65.316406 Z M 55.367188 65.316406 " fill-opacity="1" fill-rule="nonzero"/><g clip-path="url(#e6000cd179)"><path fill="#c4c5c8" d="M 55.285156 72.625 C 43.464844 72.625 32.132812 77.324219 23.773438 85.691406 C 15.417969 94.058594 10.722656 105.40625 10.722656 117.238281 C 10.722656 117.691406 10.722656 118.144531 10.722656 118.671875 L 99.695312 118.671875 C 99.695312 118.144531 99.695312 117.691406 99.695312 117.238281 C 99.695312 105.433594 95.019531 94.109375 86.695312 85.746094 C 78.371094 77.382812 67.078125 72.664062 55.285156 72.625 Z M 55.285156 72.625 " fill-opacity="1" fill-rule="nonzero"/></g></svg>