<?xml version="1.0" encoding="UTF-8"?>
<svg id="b" xmlns="http://www.w3.org/2000/svg" version="1.1" viewBox="0 0 1635.9093 1068.4191">
  <text transform="translate(563.5396 872.8232)" style="fill: #000; font-family: MyriadPro-Regular, &apos;Myriad Pro&apos;; font-size: 12px;"><tspan x="0" y="0">this is test text that is behind things to see what happens</tspan></text>
  <g id="c">
    <path d="M1071.5864,1063.7257l-36.0016-18.0348-31.7037-31.1111-33.4815-27.2593-31.2632-24.8889-51.4035-34.0741-37.9259-20.1481s-26.3704-10.6667-27.2593-11.2593-34.3704-10.963-34.3704-10.963l-66.6667-16-50.0741-10.6667-73.1852-24.2963-204.7407-69.9259-61.037-20.7407-104.2963-35.8519L.6218,636.3576,188.4737,17.0983l29.6296-11.8519,44.4444-4.7407,38.5185,8.2963,209.1852,72.8889,145.7778,46.2222,446.2222,129.7778,533.0275,152.774-33.7682,107.6705-141.3333,424-141.3333,76.4444-64.8889,27.5556-48,15.1111h-64.2963l-29.6296,6.6667-40.4427-4.1874v-.0002h-.0001Z" style="fill: #c0d899; stroke: #60823f; stroke-miterlimit: 10;"/>
    <polygon points="1353.0624 959.4745 1358.9883 948.8078 1370.2476 942.8819 1385.6549 947.0301 1395.729 942.8819 1428.3217 836.8078 1441.3586 828.5115 1473.3361 838.5316 1482.8401 835.0301 1597.2106 476.5115 1587.168 464.4605 1323.1017 386.1285 1327.5809 368.6597 1290.2476 358.5856 1268.3217 371.0301 1145.0624 333.1041 1140.9142 323.0301 1151.5809 288.0671 1145.6549 276.8078 1086.9883 259.0301 1075.1365 264.3634 1064.4698 300.5115 1053.2106 305.2523 749.8031 215.7708 745.0623 204.5115 756.3216 167.1782 750.3957 156.5115 659.729 129.8449 656.1735 140.5115 551.2846 110.2893 538.2475 115.6227 529.3586 139.919 486.692 127.4745 485.5068 132.2153 377.6549 100.2153 370.6179 92.5856 384.8401 48.1412 309.2846 25.919 248.8401 63.2523 223.0623 59.2523 33.729 605.4745 51.5068 645.4745 75.5068 655.2523 96.8401 644.5856 175.9512 665.919 191.0623 656.1412 209.2846 660.5856 219.5068 655.2523 224.8401 645.4745 232.8401 641.919 321.729 665.919 318.1735 684.5856 325.2846 697.919 462.1735 735.2523 471.0623 759.2523 567.0623 785.0301 577.729 809.919 598.1735 825.0301 622.1572 833.0301 649.729 833.0301 678.1735 819.6967 778.6179 845.4745 785.0623 835.6227 855.2846 875.6227 866.6179 874.5115 879.5068 853.8449 890.8401 851.4004 966.3957 894.5115 950.3957 931.6227 979.729 988.5115 1011.1364 998.5856 1020.6179 1018.7338 1036.0253 1034.1412 1055.5809 1044.8077 1076.9142 1047.7708 1096.4698 1044.8077 1110.0992 1037.1041 1122.5438 1031.7708 1200.766 1056.6597 1235.1365 1040.6597 1228.6179 1025.2523 1281.0663 997.9872 1353.0624 959.4745" style="fill: #fff; stroke: #e2e2e2; stroke-miterlimit: 10; stroke-width: 2px;"/>
    <polygon points="313.4366 33.4687 370.3255 50.0613 355.807 99.2464 616.2514 178.3576 526.3255 473.4687 168.5477 365.765 259.0662 66.9501 311.9181 38.8761 313.4366 33.4687" style="fill: #dddfe1; stroke: #000; stroke-miterlimit: 10;"/>
    <polygon points="665.844 137.3576 737.2514 158.3946 721.844 211.4316 1048.6588 308.6168 1001.2514 462.6909 993.844 460.6168 989.6959 473.3576 1007.7699 478.6909 967.4737 613.2094 531.0292 482.839 562.5848 377.0613 575.0292 380.6168 640.3625 166.3205 656.1403 170.9872 665.844 137.3576" style="fill: #dddfe1; stroke: #000; stroke-miterlimit: 10;"/>
    <polygon points="1080.8811 265.6538 1119.3997 277.5057 1105.1774 326.0983 1588.7329 473.0613 1477.6626 833.4093 958.807 670.9872 1080.8811 265.6538" style="fill: #dddfe1; stroke: #000; stroke-miterlimit: 10;"/>
    <path d="M290.1338,712.5454c0-8.7542-7.0967-15.851-15.851-15.851-1.9302,0-3.7715.3623-5.4823.994-1.1905-.6326-2.5472-.994-3.9893-.994-4.7042,0-8.5178,3.8135-8.5178,8.5178,0,1.7111.5093,3.301,1.3777,4.6357-2.3685,1.5395-3.9383,4.204-3.9383,7.2393,0,4.7684,3.8655,8.6339,8.6339,8.6339.8965,0,1.7609-.1369,2.5739-.3905,2.6217,1.9191,5.8442,3.0659,9.3422,3.0659,3.5651,0,6.8439-1.1913,9.4918-3.1778.197.0204.3968.0313.5992.0313,3.1812,0,5.76-2.5789,5.76-5.76,0-.9327-.2267-1.8107-.6203-2.5901.3954-1.3851.6203-2.8423.6203-4.3544v-.0002h0Z" style="fill: #94b545; stroke-width: 0px;"/>
    <path d="M521.7078,789.1021c-7.6418-4.2707-17.2989-1.5379-21.5696,6.1039-.9417,1.685-1.5237,3.469-1.8068,5.2706-1.133.7306-2.1103,1.7386-2.8139,2.9975-2.2949,4.1065-.8264,9.2958,3.28,11.5908,1.4936.8347,3.13,1.1658,4.7187,1.0588.1884,2.8186,1.7485,5.4888,4.3981,6.9695,4.1624,2.3262,9.4225.8377,11.7487-3.3247.4373-.7826.7396-1.6039.9148-2.4373,2.9543-1.3523,5.5274-3.6059,7.2339-6.6594,1.7392-3.112,2.2989-6.5554,1.8566-9.836.1139-.162.2209-.3311.3196-.5078,1.5519-2.7769.5589-6.2862-2.2181-7.8381-.8142-.455-1.6913-.6854-2.5636-.7221-1.0162-1.0209-2.1786-1.9281-3.4985-2.6658h0Z" style="fill: #94b545; stroke-width: 0px;"/>
    <path d="M892.805,889.9207c-8.7483.321-15.58,7.6733-15.259,16.4217.0708,1.9289.5004,3.7557,1.1944,5.4422-.5885,1.2129-.8999,2.5819-.847,4.0231.1725,4.7011,4.1233,8.3722,8.8244,8.1997,1.7099-.0628,3.2801-.6301,4.582-1.5468,1.6253,2.3105,4.3456,3.7815,7.3789,3.6702,4.7652-.1749,8.4863-4.1796,8.3114-8.9447-.0329-.8959-.2014-1.7547-.4846-2.5578,1.8217-2.6903,2.8495-5.9527,2.7212-9.4484-.1307-3.5627-1.4415-6.7956-3.5238-9.3689.0131-.1976.0167-.3977.0093-.5999-.1167-3.179-2.7884-5.6616-5.9674-5.5449-.9321.0342-1.8012.293-2.5656.7149-1.3987-.3443-2.8632-.5156-4.3743-.4602h.0002Z" style="fill: #94b545; stroke-width: 0px;"/>
    <circle cx="260.066" cy="679.8802" r="10.1111" transform="translate(-449.7598 841.1835) rotate(-81.87)" style="fill: #94b545; stroke-width: 0px;"/>
    <circle cx="236.2459" cy="692.3043" r="10.1111" style="fill: #94b545; stroke-width: 0px;"/>
    <circle cx="487.6215" cy="793.8972" r="6.8121" style="fill: #94b545; stroke-width: 0px;"/>
    <circle cx="862.063" cy="905.1225" r="6.8121" style="fill: #94b545; stroke-width: 0px;"/>
    <polygon points="146.6537 375.3342 247.0594 406.7026 254.34 424.1532 244.8879 453.4671 185.4685 435.9638 195.7648 402.0379 143.1894 385.296 146.6537 375.3342" style="fill: #dddfe1; stroke: #000; stroke-miterlimit: 10;"/>
    <polygon points="143.1894 385.296 195.7648 402.0379 185.4685 435.9638 131.4646 419.0109 143.1894 385.296" style="fill: #dddfe1; stroke: #000; stroke-miterlimit: 10;"/>
    <polygon points="175.3257 469.5951 119.9693 452.0657 131.4646 419.0109 185.4685 435.9638 175.3257 469.5951" style="fill: #dddfe1; stroke: #000; stroke-miterlimit: 10;"/>
    <polygon points="114.5229 467.7268 133.5351 502.2538 164.3574 506.3748 175.3257 469.5951 119.9693 452.0657 114.5229 467.7268" style="fill: #dddfe1; stroke: #000; stroke-miterlimit: 10;"/>
    <polygon points="185.4685 435.9638 244.8879 453.4671 229.0998 502.4308 206.775 508.7454 178.7785 508.3029 164.3574 506.3748 185.4685 435.9638" style="fill: #dddfe1; stroke: #000; stroke-miterlimit: 10;"/>
    <polygon points="86.6512 546.8028 124.7193 528.7355 157.2463 534.9847 147.2784 580.2466 157.1026 582.0326 145.6548 617.4377 73.4638 593.7113 86.6512 546.8028" style="fill: #dddfe1; stroke: #000; stroke-miterlimit: 10;"/>
    <polygon points="182.8841 539.9103 173.8293 585.0735 147.2784 580.2466 157.2463 534.9847 182.8841 539.9103" style="fill: #dddfe1; stroke: #000; stroke-miterlimit: 10;"/>
    <polygon points="215.129 546.1053 205.6027 590.8499 173.8293 585.0735 182.8841 539.9103 215.129 546.1053" style="fill: #dddfe1; stroke: #000; stroke-miterlimit: 10;"/>
    <polygon points="244.8879 551.8226 236.2037 596.4131 205.6027 590.8499 215.129 546.1053 244.8879 551.8226" style="fill: #dddfe1; stroke: #000; stroke-miterlimit: 10;"/>
    <polygon points="228.9183 633.8212 217.8441 641.1636 145.6548 617.4377 157.1026 582.0326 236.2037 596.4131 228.9183 633.8212" style="fill: #dddfe1; stroke: #000; stroke-miterlimit: 10;"/>
    <polygon points="253.4679 568.3799 290.0916 574.3745 275.7753 643.1964 241.18 637.7412 253.4679 568.3799" style="fill: #dddfe1; stroke: #000; stroke-miterlimit: 10;"/>
    <polygon points="328.8852 580.7243 316.4324 649.6075 275.7753 643.1964 290.0916 574.3745 328.8852 580.7243" style="fill: #dddfe1; stroke: #000; stroke-miterlimit: 10;"/>
    <polygon points="371.4765 587.6957 358.5555 656.2496 316.4324 649.6075 328.8852 580.7243 371.4765 587.6957" style="fill: #dddfe1; stroke: #000; stroke-miterlimit: 10;"/>
    <polygon points="412.1924 594.3601 399.1453 662.6501 358.5555 656.2496 371.4765 587.6957 412.1924 594.3601" style="fill: #dddfe1; stroke: #000; stroke-miterlimit: 10;"/>
    <polygon points="475.7729 604.767 463.482 672.795 399.1453 662.6501 412.1924 594.3601 475.7729 604.767" style="fill: #dddfe1; stroke: #000; stroke-miterlimit: 10;"/>
    <polygon points="484.8146 606.8207 539.8664 615.5726 526.6917 684.0278 472.0797 675.0719 484.8146 606.8207" style="fill: #dddfe1; stroke: #000; stroke-miterlimit: 10;"/>
    <polygon points="586.0978 622.9222 580.2317 660.2351 600.3876 663.634 590.3832 694.4715 526.6917 684.0278 539.8664 615.5726 586.0978 622.9222" style="fill: #dddfe1; stroke: #000; stroke-miterlimit: 10;"/>
    <polygon points="608.8594 626.5407 608.5572 641.8141 610.6744 650.6794 603.6241 653.5526 600.3876 663.634 580.2317 660.2351 586.0978 622.9222 608.8594 626.5407" style="fill: #dddfe1; stroke: #000; stroke-miterlimit: 10;"/>
    <polygon points="576.2 692.2426 573.0326 703.2885 621.4566 717.2832 632.1928 683.8575 621.4566 672.5959 616.2846 665.5183 611.9745 656.2647 610.6744 650.6794 603.6241 653.5526 590.3832 694.4715 576.2 692.2426" style="fill: #dddfe1; stroke: #000; stroke-miterlimit: 10;"/>
    <polygon points="432.2463 455.5564 444.8018 459.149 428.3574 511.8157 420.8018 509.8157 413.024 536.0379 389.3574 531.112 384.2463 510.4453 396.4685 474.6675 432.2463 455.5564" style="fill: #dddfe1; stroke: #000; stroke-miterlimit: 10;"/>
    <polygon points="473.024 467.3712 450.1352 543.3712 413.024 536.0379 420.8018 509.8157 428.3574 511.8157 444.8018 459.149 473.024 467.3712" style="fill: #dddfe1; stroke: #000; stroke-miterlimit: 10;"/>
    <polygon points="521.8019 481.3342 473.024 467.3712 450.1352 543.3712 501.5796 553.7787 521.8019 481.3342" style="fill: #dddfe1; stroke: #000; stroke-miterlimit: 10;"/>
    <polygon points="621.4566 717.2832 607.2724 761.4436 566.2113 749.6373 580.3337 705.3985 621.4566 717.2832" style="fill: #dddfe1; stroke: #000; stroke-miterlimit: 10;"/>
    <polygon points="473.3188 688.2759 573.0326 703.2885 580.3337 705.3985 566.2113 749.6373 607.2724 761.4436 606.0613 765.2141 588.3064 775.3274 462.1313 735.303 473.3188 688.2759" style="fill: #dddfe1; stroke: #000; stroke-miterlimit: 10;"/>
    <polygon points="673.7598 696.7914 689.7694 693.759 702.1369 688.0893 712.3326 680.4555 719.5179 672.5959 841.5119 738.7118 785.0201 835.6734 660.7371 798.2141 651.6792 780.521 673.7598 696.7914" style="fill: #dddfe1; stroke: #000; stroke-miterlimit: 10;"/>
    <polygon points="852.2161 742.6101 886.149 758.732 889.3319 766.2576 855.2087 823.4742 817.2294 802.5016 852.2161 742.6101" style="fill: #dddfe1; stroke: #000; stroke-miterlimit: 10;"/>
    <polygon points="922.3337 777.943 905.6296 774.1028 889.3319 766.2576 855.2087 823.4742 857.4731 827.8972 884.3104 842.846 922.3337 777.943" style="fill: #dddfe1; stroke: #000; stroke-miterlimit: 10;"/>
    <polygon points="954.1206 802.0866 930.8879 789.4184 922.3337 777.943 884.3104 842.846 919.7073 862.5627 954.1206 802.0866" style="fill: #dddfe1; stroke: #000; stroke-miterlimit: 10;"/>
    <polygon points="809.7748 812.9327 879.4646 853.8956 866.5757 874.5622 855.2424 875.6734 793.4105 840.5252 809.7748 812.9327" style="fill: #dddfe1; stroke: #000; stroke-miterlimit: 10;"/>
    <polygon points="954.1206 802.0866 958.9838 799.3735 971.4912 805.9214 975.1166 813.2205 994.7665 823.0337 960.2453 885.1431 919.7073 862.5627 954.1206 802.0866" style="fill: #dddfe1; stroke: #000; stroke-miterlimit: 10;"/>
    <polygon points="1003.7015 827.8377 1031.9858 843.7579 999.9564 905.1732 970.0248 889.1613 1003.7015 827.8377" style="fill: #dddfe1; stroke: #000; stroke-miterlimit: 10;"/>
    <polygon points="994.8716 915.7406 1031.9858 843.7579 1051.0686 854.4989 1050.5577 866.3775 1052.4529 877.399 1055.1881 885.5055 1060.2576 894.7372 1066.0049 902.1736 1071.5442 907.1131 1048.3748 979.9747 1030.097 989.7789 1007.6612 983.0293 1021.8348 931.1882 994.8716 915.7406" style="fill: #dddfe1; stroke: #000; stroke-miterlimit: 10;"/>
    <polygon points="969.0111 918.839 1006.9107 938.6192 995.5788 976.151 965.079 925.9878 969.0111 918.839" style="fill: #dddfe1; stroke: #000; stroke-miterlimit: 10;"/>
    <polygon points="528.3203 491.7786 563.9129 501.7416 544.95 564.2601 516.7648 556.5194 522.024 538.149 515.7277 536.3712 528.3203 491.7786" style="fill: #dddfe1; stroke: #000; stroke-miterlimit: 10;"/>
    <polygon points="563.9129 501.7416 594.2833 510.0379 575.6166 572.8528 544.95 564.2601 563.9129 501.7416" style="fill: #dddfe1; stroke: #000; stroke-miterlimit: 10;"/>
    <polygon points="632.6166 520.6675 616.2092 575.6305 605.5055 580.8157 575.6166 572.8528 594.2833 510.0379 632.6166 520.6675" style="fill: #dddfe1; stroke: #000; stroke-miterlimit: 10;"/>
    <polygon points="678.2898 570.3167 702.7342 578.0945 696.512 600.5389 670.9565 592.9833 678.2898 570.3167" style="fill: #dddfe1; stroke: #000; stroke-miterlimit: 10;"/>
    <polygon points="665.4009 614.5389 690.0676 622.3167 684.0676 644.5389 658.7342 636.9833 665.4009 614.5389" style="fill: #dddfe1; stroke: #000; stroke-miterlimit: 10;"/>
    <polygon points="516.8083 574.3908 541.7891 582.4275 535.0306 604.613 509.9935 597.0574 516.8083 574.3908" style="fill: #dddfe1; stroke: #000; stroke-miterlimit: 10;"/>
    <polygon points="311.2528 462.0945 335.5491 470.0945 329.3268 493.2056 304.1417 485.2056 311.2528 462.0945" style="fill: #dddfe1; stroke: #000; stroke-miterlimit: 10;"/>
    <polygon points="1099.8455 829.7242 1125.623 837.7242 1117.9196 863.2056 1092.1418 855.7982 1099.8455 829.7242" style="fill: #dddfe1; stroke: #000; stroke-miterlimit: 10;"/>
    <polygon points="1283.9526 772.8344 1318.1475 782.6125 1303.9252 830.1297 1269.0363 820.5013 1283.9526 772.8344" style="fill: #dddfe1; stroke: #000; stroke-miterlimit: 10;"/>
    <polygon points="1363.4135 821.8736 1311.0363 806.2156 1318.1475 782.6125 1369.8914 799.7366 1363.4135 821.8736" style="fill: #dddfe1; stroke: #000; stroke-miterlimit: 10;"/>
    <polygon points="1429.1122 818.2751 1412.7281 872.8232 1353.703 855.0569 1369.8914 799.7366 1429.1122 818.2751" style="fill: #dddfe1; stroke: #000; stroke-miterlimit: 10;"/>
    <polygon points="1273.2585 842.4679 1350.3575 865.8897 1353.703 855.0569 1375.2445 861.5408 1344.3698 961.5754 1238.1486 1017.2352 1226.1353 995.5934 1144.95 949.0305 1161.3944 919.0305 1142.2408 908.2858 1146.9651 904.6731 1155.9583 894.7948 1166.592 878.0198 1172.3293 865.6683 1177.2998 852.153 1197.1104 855.5013 1213.2407 860.0716 1232.9622 867.6495 1250.74 878.3161 1273.2585 842.4679" style="fill: #dddfe1; stroke: #000; stroke-miterlimit: 10;"/>
    <polygon points="1231.8828 1020.5185 1221.6166 1001.6972 1194.9886 986.5504 1183.6166 1007.475 1175.7635 1032.3806 1195.9353 1039.1143 1231.8828 1020.5185" style="fill: #dddfe1; stroke: #000; stroke-miterlimit: 10;"/>
    <polygon points="1160.2598 966.7957 1194.9886 986.5504 1183.6166 1007.475 1175.7635 1032.3806 1132.2834 1018.8083 1160.2598 966.7957" style="fill: #dddfe1; stroke: #000; stroke-miterlimit: 10;"/>
    <polygon points="1142.2408 908.2858 1137.0812 912.2314 1126.3167 917.1375 1113.998 919.8077 1094.7277 987.0008 1104.8018 1010.2289 1132.2834 1018.8083 1163.8389 960.0389 1144.95 949.0305 1161.3944 919.0305 1142.2408 908.2858" style="fill: #dddfe1; stroke: #000; stroke-miterlimit: 10;"/>
    <polygon points="884.5861 709.7242 909.475 717.4278 902.9565 739.9463 876.8824 731.6501 884.5861 709.7242" style="fill: #dddfe1; stroke: #000; stroke-miterlimit: 10;"/>
    <polygon points="954.5257 669.6897 1086.8909 711.1465 1063.3944 789.8897 1044.2834 795.8897 1014.0611 770.7787 977.1722 745.2231 915.0057 708.6343 877.7648 688.186 887.0981 657.2231 890.5518 658.2055 893.1787 650.1788 954.5257 669.6897" style="fill: #dddfe1; stroke: #000; stroke-miterlimit: 10;"/>
    <polygon points="768.9129 567.186 827.2833 585.5564 822.8389 602.149 840.2092 607.2231 831.6939 635.224 797.6166 624.8528 790.6537 646.7787 783.8389 644.112 760.95 636.112 751.8389 620.5564 768.9129 567.186" style="fill: #dddfe1; stroke: #000; stroke-miterlimit: 10;"/>
    <polygon points="882.7648 619.5564 884.6907 613.2601 892.2833 615.5564 871.4704 684.316 823.7648 661.2971 840.2092 607.2231 882.7648 619.5564" style="fill: #dddfe1; stroke: #000; stroke-miterlimit: 10;"/>
    <polygon points="797.6166 624.8528 831.6939 635.224 823.7648 661.2971 790.6537 646.7787 797.6166 624.8528" style="fill: #dddfe1; stroke: #000; stroke-miterlimit: 10;"/>
    <polygon points="892.2833 615.5564 902.6166 618.8157 906.7648 604.7416 955.5426 619.5564 954.4316 625.8157 970.872 630.8372 958.8303 671.0379 893.1787 650.1788 895.3296 643.2796 885.1074 639.8722 892.2833 615.5564" style="fill: #dddfe1; stroke: #000; stroke-miterlimit: 10;"/>
    <polygon points="1210.4294 749.8188 1283.9526 772.8344 1263.9252 836.8346 1248.8141 862.6125 1214.1475 848.0939 1183.9773 840.9956 1180.1353 828.9453 1197.3203 772.5008 1204.8141 767.9457 1210.4294 749.8188" style="fill: #dddfe1; stroke: #000; stroke-miterlimit: 10;"/>
  </g>
  <circle cx="1219.2984" cy="170.7671" r="33.4095" style="fill: #44c8f5; stroke: #4b4a96; stroke-miterlimit: 10;"/>
  <circle cx="898.0561" cy="108.1766" r="29.181" style="fill: #44c8f5; stroke: #4b4a96; stroke-miterlimit: 10;"/>
  <circle cx="1174.7315" cy="191.4863" r="32.4907" style="fill: #44c8f5; stroke: #4b4a96; stroke-miterlimit: 10;"/>
  <circle cx="305.6622" cy="842.8196" r="29.8869" style="fill: #44c8f5; stroke: #4b4a96; stroke-miterlimit: 10;"/>
  <circle cx="319.8454" cy="410.6299" r="29.8869" style="fill: #44c8f5; stroke: #4b4a96; stroke-miterlimit: 10;"/>
  <circle cx="1048.6588" cy="799.3735" r="29.8869" style="fill: #44c8f5; stroke: #4b4a96; stroke-miterlimit: 10;"/>
  <text transform="translate(694.1943 405.9457)" style="fill: #000; font-family: MyriadPro-Regular, &apos;Myriad Pro&apos;; font-size: 33.8173px;"><tspan x="0" y="0">this is test text</tspan></text>
  <text transform="translate(1203.8232 596.4131)" style="fill: #7b59a5; font-family: MyriadPro-Regular, &apos;Myriad Pro&apos;; font-size: 12px;"><tspan x="0" y="0">this is also test text but purple</tspan></text>
</svg>