<?xml version="1.0" encoding="UTF-8"?><svg id="Layer_2" xmlns="http://www.w3.org/2000/svg" viewBox="0 0 952.54 208.73"><defs><style>.cls-1{fill:#fff;}.cls-2{fill:#26a3db;}.cls-3{fill:#1a91d3;}.cls-4{fill:#1d1d1b;}</style></defs><g id="Layer_1-2"><g><g><path class="cls-4" d="M193.88,105.28v63.8h-6.9v-63.8h-7.93v-6.55h7.93v-33.45c0-19.83,10.17-23.97,18.45-23.97,2.93,0,4.83,.69,6.04,1.03v6.38c-1.72-.69-3.28-.86-5.35-.86-6.04,0-12.24,2.59-12.24,18.79v32.07h17.59v6.55h-17.59Z"/><path class="cls-4" d="M228.29,75.27c0-3.79,2.76-6.38,6.21-6.38s6.21,2.59,6.21,6.38-2.76,6.38-6.21,6.38-6.21-2.59-6.21-6.38Zm9.66,23.45v70.35h-6.9V98.72h6.9Z"/><path class="cls-4" d="M262.77,98.72h6.9v11.04c3.28-5.86,9.66-12.59,21.55-12.59,12.59,0,17.93,7.41,19.48,9.83,3.1,5,3.45,11.55,3.45,17.76v44.31h-6.9v-44.31c0-4.83-.17-10.17-2.76-14.14-1.55-2.59-5.35-6.9-13.79-6.9-9.66,0-14.66,5.17-17.24,9.83-3.1,5.52-3.79,12.07-3.79,18.97v36.55h-6.9V98.72Z"/><path class="cls-4" d="M396.22,43.38h6.9v125.7h-6.9v-12.59c-7.07,10.86-18.28,14.48-27.24,14.48-17.76,0-34.48-12.76-34.48-37.42s17.41-36.38,34.48-36.38c12.76,0,21.73,5.86,27.24,13.79V43.38Zm-54.49,90.01c0,20.52,13.45,31.04,27.59,31.04s27.24-10.52,27.24-31.04c0-16.38-10.17-29.66-27.59-29.66-14.48,0-27.24,10-27.24,29.66Z"/><path class="cls-4" d="M455.43,97.52h12.41v7.59c3.97-5.86,10.17-9.31,17.76-9.31,12.93,0,18.1,9.14,19.48,11.55,6.9-10.86,16.73-11.55,21.55-11.55,21.21,0,23.28,17.76,23.28,27.93v45.35h-12.41v-43.45c0-8.1-1.03-18.79-12.76-18.79-14.31,0-15.86,13.79-15.86,22.42v39.83h-12.41v-42.42c0-5,.17-19.83-12.93-19.83-14.14,0-15.69,14.66-15.69,23.28v38.97h-12.41V97.52Z"/><path class="cls-4" d="M596.12,162.35l-32.93-64.83h14.14l25.35,51.21,23.28-51.21h13.79l-52.59,111.21h-13.79l22.76-46.38Z"/><path class="cls-4" d="M684.26,98.72l24.31,58.11,24.31-62.42,24.31,62.42,25-58.11h7.59l-32.59,74.66-24.31-62.42-24.31,62.42-31.9-74.66h7.59Z"/><path class="cls-4" d="M860.82,98.72h6.9v70.35h-6.9v-12.59c-7.07,10.86-18.28,14.48-27.42,14.48-18.45,0-34.31-13.97-34.31-37.07,0-21.73,13.79-36.73,34.31-36.73,11.04,0,20.69,4.31,27.42,13.79v-12.24Zm-54.49,34.66c0,15.86,9.83,31.04,27.59,31.04s27.24-14.83,27.24-31.04c0-20.86-15.35-29.66-27.41-29.66-13.97,0-27.42,10.52-27.42,29.66Z"/><path class="cls-4" d="M914.96,170.28l-33.45-71.56h7.93l29.48,62.59,25.69-62.59h7.93l-46.21,110.01h-7.93l16.55-38.45Z"/></g><g><path class="cls-3" d="M65.47,0C29.31,0,0,29.31,0,65.47c0,10.52,2.78,20.86,7.06,30.05,3.13,6.73,10.19,16.69,11.91,19.05,9.96,13.65,46.5,54.5,46.5,54.5,0,0,36.54-40.85,46.5-54.5,1.72-2.36,8.78-12.32,11.91-19.05,4.27-9.19,7.06-19.53,7.06-30.05C130.94,29.31,101.63,0,65.47,0Z"/><circle class="cls-1" cx="65.47" cy="65.47" r="54.87"/><circle class="cls-2" cx="65.47" cy="65.47" r="44.98"/><circle class="cls-1" cx="86.13" cy="37.71" r="15.03"/></g></g></g></svg>