<svg width="18" height="18" viewBox="0 0 18 18" fill="none" xmlns="http://www.w3.org/2000/svg">
<path d="M9.00204 12.15C8.14318 12.15 7.31948 11.8181 6.71217 11.2274C6.10486 10.6366 5.76368 9.83543 5.76368 9C5.76368 8.16457 6.10486 7.36335 6.71217 6.77261C7.31948 6.18187 8.14318 5.85 9.00204 5.85C9.86091 5.85 10.6846 6.18187 11.2919 6.77261C11.8992 7.36335 12.2404 8.16457 12.2404 9C12.2404 9.83543 11.8992 10.6366 11.2919 11.2274C10.6846 11.8181 9.86091 12.15 9.00204 12.15ZM15.8766 9.873C15.9136 9.585 15.9414 9.297 15.9414 9C15.9414 8.703 15.9136 8.406 15.8766 8.1L17.8289 6.633C18.0047 6.498 18.051 6.255 17.9399 6.057L16.0894 2.943C15.9784 2.745 15.7286 2.664 15.525 2.745L13.2212 3.645C12.74 3.294 12.2404 2.988 11.6575 2.763L11.3152 0.378C11.2782 0.162 11.0839 0 10.8525 0H7.15155C6.92024 0 6.72593 0.162 6.68892 0.378L6.34658 2.763C5.76368 2.988 5.26404 3.294 4.78291 3.645L2.47905 2.745C2.27549 2.664 2.02567 2.745 1.91464 2.943L0.0641489 6.057C-0.0561333 6.255 -0.000618345 6.498 0.175179 6.633L2.12745 8.1C2.09044 8.406 2.06268 8.703 2.06268 9C2.06268 9.297 2.09044 9.585 2.12745 9.873L0.175179 11.367C-0.000618345 11.502 -0.0561333 11.745 0.0641489 11.943L1.91464 15.057C2.02567 15.255 2.27549 15.327 2.47905 15.255L4.78291 14.346C5.26404 14.706 5.76368 15.012 6.34658 15.237L6.68892 17.622C6.72593 17.838 6.92024 18 7.15155 18H10.8525C11.0839 18 11.2782 17.838 11.3152 17.622L11.6575 15.237C12.2404 15.003 12.74 14.706 13.2212 14.346L15.525 15.255C15.7286 15.327 15.9784 15.255 16.0894 15.057L17.9399 11.943C18.051 11.745 18.0047 11.502 17.8289 11.367L15.8766 9.873Z" fill="#6A6D73"/>
</svg>
