<svg width="26" height="27" viewBox="0 0 26 27" fill="none" xmlns="http://www.w3.org/2000/svg">
<path d="M22.5595 26.43H2.94952C2.17417 26.43 1.43042 26.1227 0.881226 25.5753C0.332031 25.028 0.0221775 24.2853 0.0195312 23.51V3.89998C0.0195312 3.1229 0.328219 2.37764 0.877701 1.82816C1.42718 1.27868 2.17244 0.969988 2.94952 0.969988H22.5595C22.9451 0.968672 23.3272 1.04348 23.6839 1.19014C24.0405 1.3368 24.3647 1.55241 24.6378 1.82462C24.9109 2.09682 25.1277 2.42028 25.2755 2.77641C25.4234 3.13255 25.4995 3.51436 25.4995 3.89998V23.51C25.4995 23.8951 25.4233 24.2765 25.2753 24.6321C25.1274 24.9876 24.9105 25.3104 24.6372 25.5818C24.364 25.8532 24.0397 26.0679 23.6831 26.2135C23.3265 26.359 22.9447 26.4326 22.5595 26.43Z" fill="#DFF1FA"/>
<path d="M7.13031 7.73001H5.13031C4.99847 7.71211 4.87759 7.64702 4.79007 7.54681C4.70254 7.4466 4.6543 7.31806 4.6543 7.18501C4.6543 7.05196 4.70254 6.92342 4.79007 6.82321C4.87759 6.723 4.99847 6.65791 5.13031 6.64001H7.13031C7.20807 6.62945 7.2872 6.63566 7.36237 6.65821C7.43753 6.68077 7.50699 6.71914 7.5661 6.77076C7.62521 6.82239 7.67259 6.88606 7.70505 6.95751C7.73751 7.02896 7.7543 7.10653 7.7543 7.18501C7.7543 7.26348 7.73751 7.34105 7.70505 7.4125C7.67259 7.48395 7.62521 7.54763 7.5661 7.59925C7.50699 7.65088 7.43753 7.68925 7.36237 7.7118C7.2872 7.73435 7.20807 7.74056 7.13031 7.73001Z" fill="#26A3DB"/>
<path d="M20.4109 7.73001H9.50095C9.42318 7.74056 9.34406 7.73435 9.26889 7.7118C9.19372 7.68925 9.12426 7.65088 9.06516 7.59925C9.00605 7.54763 8.95867 7.48395 8.92621 7.4125C8.89375 7.34105 8.87695 7.26348 8.87695 7.18501C8.87695 7.10653 8.89375 7.02896 8.92621 6.95751C8.95867 6.88606 9.00605 6.82239 9.06516 6.77076C9.12426 6.71914 9.19372 6.68077 9.26889 6.65821C9.34406 6.63566 9.42318 6.62945 9.50095 6.64001H20.3709C20.4487 6.62945 20.5278 6.63566 20.603 6.65821C20.6782 6.68077 20.7476 6.71914 20.8067 6.77076C20.8658 6.82239 20.9132 6.88606 20.9457 6.95751C20.9781 7.02896 20.9949 7.10653 20.9949 7.18501C20.9949 7.26348 20.9781 7.34105 20.9457 7.4125C20.9132 7.48395 20.8658 7.54763 20.8067 7.59925C20.7476 7.65088 20.6782 7.68925 20.603 7.7118C20.5278 7.73435 20.4487 7.74056 20.3709 7.73001H20.4109Z" fill="#26A3DB"/>
<path d="M7.1301 20.7699H5.1301C4.98423 20.7699 4.84433 20.712 4.74118 20.6088C4.63804 20.5057 4.58008 20.3658 4.58008 20.2199C4.58008 20.0741 4.63804 19.9342 4.74118 19.831C4.84433 19.7279 4.98423 19.6699 5.1301 19.6699H7.1301C7.27597 19.6699 7.41587 19.7279 7.51901 19.831C7.62216 19.9342 7.68008 20.0741 7.68008 20.2199C7.68008 20.3658 7.62216 20.5057 7.51901 20.6088C7.41587 20.712 7.27597 20.7699 7.1301 20.7699Z" fill="#26A3DB"/>
<path d="M20.4092 20.7699H9.49921C9.35334 20.7699 9.21344 20.712 9.11029 20.6088C9.00715 20.5057 8.94922 20.3658 8.94922 20.2199C8.94922 20.0741 9.00715 19.9342 9.11029 19.831C9.21344 19.7279 9.35334 19.6699 9.49921 19.6699H20.3692C20.5151 19.6699 20.655 19.7279 20.7581 19.831C20.8613 19.9342 20.9192 20.0741 20.9192 20.2199C20.9192 20.3658 20.8613 20.5057 20.7581 20.6088C20.655 20.712 20.5151 20.7699 20.3692 20.7699H20.4092Z" fill="#26A3DB"/>
<path d="M7.1301 12.08H5.1301C4.98423 12.08 4.84433 12.022 4.74118 11.9189C4.63804 11.8158 4.58008 11.6759 4.58008 11.53C4.58008 11.3841 4.63804 11.2442 4.74118 11.1411C4.84433 11.0379 4.98423 10.98 5.1301 10.98H7.1301C7.27597 10.98 7.41587 11.0379 7.51901 11.1411C7.62216 11.2442 7.68008 11.3841 7.68008 11.53C7.68008 11.6759 7.62216 11.8158 7.51901 11.9189C7.41587 12.022 7.27597 12.08 7.1301 12.08Z" fill="#26A3DB"/>
<path d="M20.4092 12.08H9.49921C9.35334 12.08 9.21344 12.022 9.11029 11.9189C9.00715 11.8158 8.94922 11.6759 8.94922 11.53C8.94922 11.3841 9.00715 11.2442 9.11029 11.1411C9.21344 11.0379 9.35334 10.98 9.49921 10.98H20.3692C20.5151 10.98 20.655 11.0379 20.7581 11.1411C20.8613 11.2442 20.9192 11.3841 20.9192 11.53C20.9192 11.6759 20.8613 11.8158 20.7581 11.9189C20.655 12.022 20.5151 12.08 20.3692 12.08H20.4092Z" fill="#26A3DB"/>
<path d="M7.13031 16.4199H5.13031C4.99847 16.402 4.87759 16.337 4.79007 16.2367C4.70254 16.1365 4.6543 16.008 4.6543 15.8749C4.6543 15.7419 4.70254 15.6134 4.79007 15.5131C4.87759 15.4129 4.99847 15.3479 5.13031 15.33H7.13031C7.20807 15.3194 7.2872 15.3256 7.36237 15.3482C7.43753 15.3707 7.50699 15.4091 7.5661 15.4607C7.62521 15.5123 7.67259 15.576 7.70505 15.6475C7.73751 15.7189 7.7543 15.7965 7.7543 15.8749C7.7543 15.9534 7.73751 16.031 7.70505 16.1024C7.67259 16.1739 7.62521 16.2376 7.5661 16.2892C7.50699 16.3408 7.43753 16.3792 7.36237 16.4017C7.2872 16.4243 7.20807 16.4305 7.13031 16.4199Z" fill="#26A3DB"/>
<path d="M20.4109 16.4199H9.50095C9.42318 16.4305 9.34406 16.4243 9.26889 16.4017C9.19372 16.3792 9.12426 16.3408 9.06516 16.2892C9.00605 16.2376 8.95867 16.1739 8.92621 16.1024C8.89375 16.031 8.87695 15.9534 8.87695 15.8749C8.87695 15.7965 8.89375 15.7189 8.92621 15.6475C8.95867 15.576 9.00605 15.5123 9.06516 15.4607C9.12426 15.4091 9.19372 15.3707 9.26889 15.3482C9.34406 15.3256 9.42318 15.3194 9.50095 15.33H20.3709C20.4487 15.3194 20.5278 15.3256 20.603 15.3482C20.6782 15.3707 20.7476 15.4091 20.8067 15.4607C20.8658 15.5123 20.9132 15.576 20.9457 15.6475C20.9781 15.7189 20.9949 15.7965 20.9949 15.8749C20.9949 15.9534 20.9781 16.031 20.9457 16.1024C20.9132 16.1739 20.8658 16.2376 20.8067 16.2892C20.7476 16.3408 20.6782 16.3792 20.603 16.4017C20.5278 16.4243 20.4487 16.4305 20.3709 16.4199H20.4109Z" fill="#26A3DB"/>
</svg>
