<?xml version="1.0" encoding="UTF-8"?>
<svg id="Layer_2" data-name="Layer 2" xmlns="http://www.w3.org/2000/svg" xmlns:xlink="http://www.w3.org/1999/xlink" viewBox="0 0 292.44 292.44">
  <defs>
    <style>
      .cls-1 {
        fill: #26a3db;
      }

      .cls-1, .cls-2, .cls-3, .cls-4, .cls-5, .cls-6 {
        stroke-width: 0px;
      }

      .cls-2 {
        fill: #f0f8fc;
      }

      .cls-3 {
        fill: #8bcdeb;
      }

      .cls-4 {
        fill: none;
      }

      .cls-5 {
        fill: #1a91d3;
      }

      .cls-6 {
        fill: #fff;
      }

      .cls-7 {
        clip-path: url(#clippath);
      }
    </style>
    <clipPath id="clippath">
      <rect class="cls-4" x="0" y="0" width="292.44" height="292.44" rx="2.53" ry="2.53"/>
    </clipPath>
  </defs>
  <g id="Layer_1-2" data-name="Layer 1">
    <g>
      <rect class="cls-2" x="0" y="0" width="292.44" height="292.44" rx="2.53" ry="2.53"/>
      <g class="cls-7">
        <g>
          <polygon class="cls-3" points="59.19 42 86.4 42 86.4 76.89 72.79 76.89 72.79 59.45 59.19 59.45 59.19 42"/>
          <polygon class="cls-3" points="59.19 61.52 71.02 61.52 71.02 79.65 69.15 82.02 59.19 82.02 59.19 61.52"/>
          <polygon class="cls-3" points="38.5 42 56.63 42 56.63 82.02 46.58 84.18 38.5 64.28 38.5 42"/>
          <rect class="cls-3" x="102.95" y="36.48" width="23.85" height="40.41"/>
          <rect class="cls-3" x="129.17" y="36.48" width="11.83" height="40.41"/>
          <polygon class="cls-3" points="143.36 36.48 157.16 36.48 157.16 50.28 179.83 50.28 179.83 62.3 143.36 62.3 143.36 36.48"/>
          <rect class="cls-3" x="159.72" y="36.48" width="20.11" height="11.63"/>
          <rect class="cls-3" x="143.36" y="64.67" width="36.47" height="12.22"/>
          <polygon class="cls-3" points="38.5 39.44 88.96 39.44 88.96 76.89 100.59 76.89 100.59 -2.55 33.76 -2.55 33.76 2.58 38.5 2.58 38.5 39.44"/>
          <polygon class="cls-3" points="102.95 -2.55 102.95 33.72 179.83 33.72 179.83 -4.12 139.92 -4.12 139.92 -8.86 120.89 -8.86 114.88 -2.55 102.95 -2.55"/>
          <rect class="cls-3" x="166.47" y="97.39" width="13.36" height="16.16"/>
          <polygon class="cls-3" points="163.86 97.39 143.36 97.39 143.36 117.89 153.61 117.89 153.61 113.55 163.86 113.55 163.86 97.39"/>
          <polygon class="cls-3" points="141 117.89 141 97.39 130.94 97.39 130.94 122.03 135.97 122.03 135.97 117.89 141 117.89"/>
          <rect class="cls-3" x="118.72" y="97.39" width="9.66" height="24.64"/>
          <polygon class="cls-3" points="115.77 97.39 100.59 97.39 91.91 101.92 98.42 111.58 98.22 120.85 105.85 120.85 105.85 128.34 122.27 128.34 122.27 124.59 115.77 124.59 115.77 97.39"/>
          <polygon class="cls-3" points="89.94 103.3 95.86 111.98 95.86 121.04 86.4 121.04 77.72 117.89 83.24 109.71 89.94 103.3"/>
          <polygon class="cls-3" points="76.54 120.06 74.17 131.29 104.14 131.29 104.14 123.61 84.62 124 76.54 120.06"/>
          <polygon class="cls-3" points="74.17 133.86 104.14 133.86 104.14 150.02 77.72 150.02 74.96 141.94 74.17 133.86"/>
          <polygon class="cls-3" points="86.79 152.19 86.79 169.14 83.24 169.14 78.71 152.19 86.79 152.19"/>
          <rect class="cls-3" x="89.15" y="152.19" width="14.98" height="16.95"/>
          <polygon class="cls-3" points="105.85 131.29 124.83 131.29 124.83 124.59 136.86 124.59 136.86 169.14 105.85 169.14 105.85 131.29"/>
          <polygon class="cls-3" points="139.22 121.04 139.22 131.29 179.83 131.29 179.83 116.25 155.39 116.25 155.39 121.04 139.22 121.04"/>
          <rect class="cls-3" x="139.22" y="133.86" width="15.77" height="35.28"/>
          <rect class="cls-3" x="157.36" y="133.86" width="22.47" height="8.08"/>
          <polygon class="cls-3" points="157.36 144.5 157.36 169.14 176.02 169.14 179.83 165.26 179.83 144.5 157.36 144.5"/>
          <polygon class="cls-3" points="159.53 206.2 174.7 206.2 182.19 213.69 182.19 230.84 165.24 230.84 165.24 249.96 159.53 249.96 159.53 206.2"/>
          <rect class="cls-3" x="130.94" y="206.2" width="26.41" height="43.76"/>
          <polygon class="cls-3" points="105.85 206.2 128.38 206.2 128.38 249.96 111.04 249.96 111.04 246.21 105.85 246.21 105.85 206.2"/>
          <rect class="cls-3" x="167.61" y="233.2" width="14.59" height="16.75"/>
          <rect class="cls-3" x="87.97" y="206.2" width="16.16" height="21.88"/>
          <polygon class="cls-3" points="67.18 208.52 68.06 206.2 85.21 206.2 85.21 230.45 103.35 230.45 103.35 245.82 56.63 245.82 53.39 242.33 55.38 238.42 59 240.99 67.08 240.56 71.51 235.87 71.66 210.93 67.18 208.52"/>
          <polygon class="cls-3" points="56.8 236.58 60.1 238.58 66.02 238.38 69.49 234.68 69.49 212.06 66.39 210.44 56.8 236.58"/>
          <polygon class="cls-3" points="50.13 242.22 55.99 248.68 108.32 248.68 108.57 262.33 50.13 262.33 50.13 242.22"/>
          <rect class="cls-3" x="50.13" y="264.74" width="58.45" height="20.3"/>
          <polygon class="cls-3" points="209.99 218.62 203.75 225.06 203.75 249.96 216.49 249.96 216.49 218.62 209.99 218.62"/>
          <rect class="cls-3" x="218.86" y="218.62" width="9.79" height="31.34"/>
          <rect class="cls-3" x="231.08" y="218.62" width="9.92" height="31.34"/>
          <rect class="cls-3" x="243.3" y="218.62" width="21.03" height="31.34"/>
          <polygon class="cls-3" points="266.51 218.62 266.51 239.86 279.72 239.86 279.72 225.07 273.36 218.62 266.51 218.62"/>
          <rect class="cls-3" x="266.51" y="242.03" width="13.21" height="9.36"/>
          <polygon class="cls-3" points="204.57 31.55 237.09 31.55 237.09 39.93 230.41 39.93 230.41 46.63 204.57 46.63 204.57 31.55"/>
          <polygon class="cls-3" points="232.46 42.3 237.09 42.3 237.09 62.8 231.38 69.1 204.57 65.16 204.57 49 232.54 49 232.46 42.3"/>
          <rect class="cls-3" x="239.66" y="35.89" width="5.13" height="25.82"/>
          <rect class="cls-3" x="79" y="185.11" width="25.82" height="5.13"/>
          <polygon class="cls-3" points="247.44 35.89 254.64 35.89 254.64 43.87 259.76 49.39 267.45 49.39 267.45 67.36 253.85 69.1 247.44 62.3 247.44 35.89"/>
          <polygon class="cls-3" points="269.81 49.39 280.36 49.39 280.36 65.56 269.81 67.07 269.81 49.39"/>
          <polygon class="cls-3" points="257 35.89 257 42.89 261.04 47.13 280.36 47.13 280.36 35.89 257 35.89"/>
          <polygon class="cls-3" points="204.57 9.97 204.57 29.09 240.64 29.09 240.64 -2.06 231.08 -2.06 230.98 9.97 204.57 9.97"/>
          <polygon class="cls-3" points="243.17 -10.96 251.32 -10.96 251.32 -1.37 256.44 4.02 280.36 4.02 280.36 27.28 259.6 27.28 259.6 33.72 239.49 33.72 239.49 31.55 243.1 31.55 243.17 -10.96"/>
          <rect class="cls-3" x="262.08" y="29.43" width="18.28" height="4.29"/>
          <polygon class="cls-3" points="204.57 93.55 204.57 107.64 228.12 107.64 228.12 88.52 216.35 90.59 204.57 93.55"/>
          <polygon class="cls-3" points="230.41 88.52 230.41 109.71 204.57 109.71 204.57 125.78 241.03 125.78 241.03 87.63 230.41 88.52"/>
          <polygon class="cls-3" points="243.4 87.63 243.4 107.64 256.8 107.64 256.8 88.52 243.4 87.63"/>
          <polygon class="cls-3" points="258.97 88.52 258.97 107.64 279.96 107.64 279.96 93.55 269.47 90.79 258.97 88.52"/>
          <rect class="cls-3" x="243.4" y="110.1" width="36.57" height="15.67"/>
          <rect class="cls-3" x="204.57" y="127.94" width="30.36" height="12.22"/>
          <rect class="cls-3" x="237.49" y="127.94" width="42.48" height="12.22"/>
          <rect class="cls-3" x="204.57" y="142.33" width="36.47" height="11.93"/>
          <rect class="cls-3" x="243.4" y="142.33" width="36.57" height="17.15"/>
          <polygon class="cls-3" points="204.57 156.23 204.57 168.16 228.12 168.16 228.12 163.62 241.03 163.62 241.03 156.23 204.57 156.23"/>
          <rect class="cls-3" x="243.4" y="161.75" width="36.57" height="10.94"/>
          <rect class="cls-3" x="243.4" y="174.96" width="12.52" height="19.22"/>
          <rect class="cls-3" x="230.41" y="165.69" width="10.63" height="28.48"/>
          <polygon class="cls-3" points="204.57 170.52 228.32 170.52 228.32 180.38 216.1 180.38 210.38 190.23 204.57 181.56 204.57 170.52"/>
          <polygon class="cls-3" points="212.45 191.42 217.28 182.35 228.32 182.35 228.32 194.18 219.75 194.18 212.45 191.42"/>
          <polygon class="cls-3" points="258.18 174.96 258.73 194.18 266.96 193.68 275.04 189.05 279.18 181.86 279.96 174.96 258.18 174.96"/>
          <rect class="cls-3" x="204.57" y="-2.06" width="24.25" height="9.86"/>
          <rect class="cls-3" x="110.64" y="252.28" width="145.28" height="82.64"/>
          <rect class="cls-3" x="258.18" y="253.7" width="19.81" height="24.18"/>
          <polygon class="cls-3" points="36.23 42 36.23 65.46 44.41 85.17 36.72 90.89 26.37 81.03 26.37 74.92 33.76 65.85 33.76 42 36.23 42"/>
          <polygon class="cls-3" points="18.69 84.18 30.91 96.01 22.04 104.59 8.34 90.89 8.34 80.54 -10 80.54 -10 45.45 -.63 45.45 -.63 74.9 18.62 75.13 18.69 84.18"/>
          <polygon class="cls-3" points="-10 82.71 -10 89.7 13.86 112.86 20.46 106.26 5.87 91.87 6.07 82.71 -10 82.71"/>
          <polygon class="cls-3" points="-10 93.15 -10 103.3 -4.77 103.3 -.43 107.44 -3.88 111.68 -3.88 115.43 8.93 119.27 12.57 114.44 -10 93.15"/>
          <polygon class="cls-3" points="-3.69 117.79 -3.69 122.33 5.87 125.68 7.94 121.73 -3.69 117.79"/>
          <polygon class="cls-3" points="-5.26 105.77 -3.19 107.84 -6.05 110.89 -6.05 123.71 5.23 127.94 4.79 140.86 -17.19 140.86 -17.19 113.36 -10 106.21 -5.26 105.77"/>
          <rect class="cls-3" x="-17.19" y="142.92" width="21.98" height="9.26"/>
          <rect class="cls-3" x="-17.19" y="154.16" width="21.98" height="11.04"/>
          <polygon class="cls-3" points="-17.19 167.37 4.79 167.37 6.56 177.42 .55 179.69 -1.81 174.46 -17.19 174.27 -17.19 167.37"/>
          <polygon class="cls-3" points="-14.53 176.83 -3.69 176.83 -.43 183.04 7.21 179.69 13.17 188.36 -4.08 197.72 -14.53 176.83"/>
          <polygon class="cls-3" points="-3.69 199.69 -3.69 206.2 5.38 206.2 9.42 209.85 22.23 197.13 14.55 189.35 -3.69 199.69"/>
          <polygon class="cls-3" points="23.71 198.41 10.9 211.23 18.19 217.73 30.41 205.12 23.71 198.41"/>
          <polygon class="cls-3" points="31.89 207.09 20.07 219.6 24.3 223.94 27.36 221.48 34.06 226.9 38 221.67 38 213.59 31.89 207.09"/>
          <polygon class="cls-3" points="-3.69 208.07 -3.69 212.11 -10.29 212.11 -10.29 231.73 29.03 231.73 32.58 228.67 27.36 224.51 24.36 227.11 4.79 208.07 -3.69 208.07"/>
          <rect class="cls-3" x="-10" y="13.93" width="46.37" height="25.16"/>
        </g>
      </g>
      <path class="cls-3" d="m289.92,1c.84,0,1.53.69,1.53,1.53v287.39c0,.84-.69,1.53-1.53,1.53H2.53c-.84,0-1.53-.69-1.53-1.53V2.53c0-.84.69-1.53,1.53-1.53h287.39m0-1H2.53C1.13,0,0,1.13,0,2.53v287.39c0,1.4,1.13,2.53,2.53,2.53h287.39c1.4,0,2.53-1.13,2.53-2.53V2.53c0-1.4-1.13-2.53-2.53-2.53h0Z"/>
      <g>
        <path class="cls-5" d="m106.78,87.26c-5.67,0-10.27,4.6-10.27,10.27,0,1.65.44,3.27,1.11,4.71.49,1.06,1.6,2.62,1.87,2.99,1.56,2.14,7.29,8.55,7.29,8.55,0,0,5.73-6.41,7.29-8.55.27-.37,1.38-1.93,1.87-2.99.67-1.44,1.11-3.06,1.11-4.71,0-5.67-4.6-10.27-10.27-10.27Z"/>
        <circle class="cls-6" cx="106.78" cy="97.53" r="8.61"/>
        <circle class="cls-1" cx="106.78" cy="97.53" r="7.06"/>
        <circle class="cls-6" cx="110.02" cy="93.18" r="2.36"/>
      </g>
    </g>
  </g>
</svg>