<?xml version="1.0" encoding="UTF-8"?><svg id="Layer_2" xmlns="http://www.w3.org/2000/svg" viewBox="0 0 1634.657 1067.4076"><g id="Layer_2-2"><g id="Layer_1-2"><path d="m1070.9646,1063.22l-36.0016-18.0348-31.7037-31.1111-33.4815-27.2593-31.2632-24.8889-51.4035-34.0741-37.9259-20.1481s-26.3704-10.6667-27.2593-11.2593-34.3704-10.963-34.3704-10.963l-66.6667-16-50.0741-10.6667-73.1852-24.2963-204.7407-69.9259-61.037-20.7407-104.2963-35.8519L0,635.8519,187.8519,16.5926l29.6296-11.8519,44.4444-4.7407,38.5185,8.2963,209.1852,72.8889,145.7778,46.2222,446.2222,129.7778,533.0275,152.774-33.7682,107.6705-141.3333,424-141.3333,76.4444-64.8889,27.5556-48,15.1111h-64.2963l-29.6296,6.6667-40.4427-4.1874v-.0002Z" style="fill:#c0d899; stroke-width:0px;"/><polygon points="1352.4406 958.9688 1358.3665 948.3021 1369.6257 942.3762 1385.0331 946.5244 1395.1072 942.3762 1427.6998 836.3021 1440.7368 828.0058 1472.7142 838.0259 1482.2183 834.5244 1596.5887 476.0058 1586.5461 463.9548 1322.4799 385.6228 1326.9591 368.154 1289.6257 358.0799 1267.6998 370.5244 1144.4406 332.5984 1140.2924 322.5244 1150.9591 287.5614 1145.0331 276.3021 1086.3665 258.5244 1074.5146 263.8577 1063.848 300.0058 1052.5887 304.7466 749.1813 215.2651 744.4405 204.0058 755.6998 166.6725 749.7739 156.0058 659.1072 129.3392 655.5517 140.0058 550.6628 109.7836 537.6257 115.117 528.7368 139.4133 486.0702 126.9688 484.885 131.7096 377.0331 99.7096 369.9961 92.0799 384.2183 47.6355 308.6628 25.4133 248.2183 62.7466 222.4405 58.7466 33.1072 604.9688 50.885 644.9688 74.885 654.7466 96.2183 644.0799 175.3294 665.4133 190.4405 655.6355 208.6628 660.0799 218.885 654.7466 224.2183 644.9688 232.2183 641.4133 321.1072 665.4133 317.5517 684.0799 324.6628 697.4133 461.5517 734.7466 470.4405 758.7466 566.4405 784.5244 577.1072 809.4133 597.5517 824.5244 621.5354 832.5244 649.1072 832.5244 677.5517 819.191 777.9961 844.9688 784.4405 835.117 854.6628 875.117 865.9961 874.0058 878.885 853.3392 890.2183 850.8947 965.7739 894.0058 949.7739 931.117 979.1072 988.0058 1010.5146 998.0799 1019.9961 1018.2281 1035.4034 1033.6355 1054.9591 1044.3021 1076.2924 1047.2651 1095.848 1044.3021 1109.4775 1036.5984 1121.922 1031.2651 1200.1442 1056.1541 1234.5146 1040.1541 1227.9961 1024.7466 1280.4445 997.4815 1352.4406 958.9688" style="fill:#fff; stroke:#e2e2e2; stroke-miterlimit:10; stroke-width:2px;"/><polygon points="312.8148 32.963 369.7037 49.5556 355.1852 98.7407 615.6296 177.8519 525.7037 472.963 167.9259 365.2593 258.4444 66.4444 311.2963 38.3704 312.8148 32.963" style="fill:#dddfe1; stroke:#000; stroke-miterlimit:10;"/><polygon points="665.2222 136.8519 736.6296 157.8889 721.2222 210.9259 1048.037 308.1111 1000.6296 462.1852 993.2222 460.1111 989.0741 472.8519 1007.1481 478.1852 966.8519 612.7037 530.4074 482.3333 561.963 376.5556 574.4074 380.1111 639.7407 165.8148 655.5185 170.4815 665.2222 136.8519" style="fill:#dddfe1; stroke:#000; stroke-miterlimit:10;"/><polygon points="1080.2593 265.1481 1118.7778 277 1104.5555 325.5926 1588.1111 472.5556 1477.0408 832.9036 958.1852 670.4815 1080.2593 265.1481" style="fill:#dddfe1; stroke:#000; stroke-miterlimit:10;"/><polygon points="521.2222 480.7778 501 553.2222 388.7778 530.5556 383.6667 509.8889 395.8889 474.1111 431.6667 455 521.2222 480.7778" style="fill:#dddfe1; stroke:#000; stroke-miterlimit:10;"/><polygon points="527.7407 491.2222 515.1481 535.8148 521.4444 537.5926 516.1852 555.963 604.9259 580.2593 615.6296 575.0741 632.037 520.1111 527.7407 491.2222" style="fill:#dddfe1; stroke:#000; stroke-miterlimit:10;"/><polygon points="928.3704 716.4444 976.5926 744.6667 1013.4815 770.2222 1043.7037 795.3333 1062.8148 789.3333 1086.3113 710.59 958.1852 670.4815 970.2924 630.2808 953.8519 625.2593 954.963 619 906.1852 604.1852 902.037 618.2593 884.1111 612.7037 882.1852 619 822.2593 601.5926 826.7037 585 768.3333 566.6296 751.2593 620 760.3704 635.5556 783.2593 643.5556 824.1481 661.1111 870.8908 683.7596 884.4444 639.4815 894.6667 642.5926 890.2222 657.7037 886.5185 656.6667 877.1852 687.6296 907.2593 703.7778 928.3704 716.4444" style="fill:#dddfe1; stroke:#000; stroke-miterlimit:10;"/><polygon points="252.8883 567.8235 475.1933 604.2106 462.9024 672.2386 240.6004 637.1848 252.8883 567.8235" style="fill:#dddfe1; stroke:#000; stroke-miterlimit:10;"/><polygon points="484.235 606.2643 608.2798 625.9843 607.9776 641.2576 611.3949 655.7083 615.705 664.9619 620.877 672.0395 631.6132 683.3011 605.4817 764.6577 587.7268 774.771 461.5517 734.7466 472.7392 687.7195 572.453 702.7321 575.7612 691.6135 471.5001 674.5155 484.235 606.2643" style="fill:#dddfe1; stroke:#000; stroke-miterlimit:10;"/><polygon points="244.3083 551.2662 124.1397 528.1791 86.0716 546.2464 72.8842 593.1549 217.2645 640.6072 228.3387 633.2648 244.3083 551.2662" style="fill:#dddfe1; stroke:#000; stroke-miterlimit:10;"/><polygon points="146.0741 374.7778 246.4798 406.1462 253.7604 423.5968 228.5202 501.8744 206.1954 508.189 178.1989 507.7465 132.9555 501.6974 113.9433 467.1704 146.0741 374.7778" style="fill:#dddfe1; stroke:#000; stroke-miterlimit:10;"/><polygon points="660.1575 797.6577 651.0996 779.9646 673.1802 696.2349 689.1898 693.2026 701.5573 687.5329 711.7529 679.8991 718.9383 672.0395 840.9323 738.1554 784.4405 835.117 660.1575 797.6577" style="fill:#dddfe1; stroke:#000; stroke-miterlimit:10;"/><polygon points="964.4994 925.4314 968.4315 918.2826 1006.3311 938.0628 994.9992 975.5946 964.4994 925.4314" style="fill:#dddfe1; stroke:#000; stroke-miterlimit:10;"/><polygon points="851.6365 742.0537 816.6498 801.9452 854.6291 822.9177 856.8935 827.3408 959.6657 884.5867 994.1868 822.4773 974.5369 812.6641 970.9116 805.3649 958.4042 798.8171 953.541 801.5302 930.3082 788.862 921.754 777.3866 905.05 773.5463 888.7523 765.7012 885.5694 758.1756 851.6365 742.0537" style="fill:#dddfe1; stroke:#000; stroke-miterlimit:10;"/><polygon points="1003.1218 827.2813 1050.489 853.9425 1049.978 865.8211 1052.0251 877.7258 1054.6085 884.9491 1059.678 894.1808 1065.4253 901.6172 1070.9646 906.5567 1047.795 979.4183 1029.5173 989.2225 1007.0816 982.4729 1021.2552 930.6318 994.292 915.1842 999.3768 904.6168 969.4451 888.6049 1003.1218 827.2813" style="fill:#dddfe1; stroke:#000; stroke-miterlimit:10;"/><line x1="888.7523" y1="765.7012" x2="854.6291" y2="822.9177" style="fill:none; stroke:#000; stroke-miterlimit:10;"/><line x1="921.754" y1="777.3866" x2="883.7308" y2="842.2896" style="fill:none; stroke:#000; stroke-miterlimit:10;"/><line x1="953.541" y1="801.5302" x2="919.1277" y2="862.0063" style="fill:none; stroke:#000; stroke-miterlimit:10;"/><line x1="1031.4061" y1="843.2015" x2="999.3768" y2="904.6168" style="fill:none; stroke:#000; stroke-miterlimit:10;"/><polygon points="878.885 853.3392 809.1951 812.3763 792.8309 839.9688 854.6628 875.117 865.9961 874.0058 878.885 853.3392" style="fill:#dddfe1; stroke:#000; stroke-miterlimit:10;"/><polyline points="156.6667 534.4283 146.6988 579.6902 235.6241 595.8567" style="fill:#dddfe1; stroke:#000; stroke-miterlimit:10;"/><line x1="182.3045" y1="539.3539" x2="173.2497" y2="584.5171" style="fill:none; stroke:#000; stroke-miterlimit:10;"/><line x1="214.5494" y1="545.5488" x2="205.0231" y2="590.2935" style="fill:none; stroke:#000; stroke-miterlimit:10;"/><line x1="156.523" y1="581.4762" x2="145.0752" y2="616.8813" style="fill:none; stroke:#000; stroke-miterlimit:10;"/><line x1="289.512" y1="573.8181" x2="275.1957" y2="642.64" style="fill:none; stroke:#000; stroke-miterlimit:10;"/><line x1="328.3056" y1="580.1679" x2="315.8528" y2="649.051" style="fill:none; stroke:#000; stroke-miterlimit:10;"/><line x1="370.8969" y1="587.1393" x2="357.9759" y2="655.6932" style="fill:none; stroke:#000; stroke-miterlimit:10;"/><line x1="411.6128" y1="593.8037" x2="398.5657" y2="662.0936" style="fill:none; stroke:#000; stroke-miterlimit:10;"/><line x1="539.2868" y1="615.0162" x2="526.1121" y2="683.4714" style="fill:none; stroke:#000; stroke-miterlimit:10;"/><polyline points="585.5182 622.3658 579.6521 659.6787 599.808 663.0776" style="fill:#dddfe1; stroke:#000; stroke-miterlimit:10;"/><polyline points="610.0947 650.123 603.0445 652.9962 589.8035 693.9151 575.7612 691.6135 572.453 702.7321 620.877 716.7268" style="fill:#dddfe1; stroke:#000; stroke-miterlimit:10;"/><polyline points="606.6928 760.8872 565.6317 749.0809 579.754 704.8421" style="fill:#dddfe1; stroke:#000; stroke-miterlimit:10;"/><polygon points="1209.8499 749.2623 1204.2345 767.3893 1196.7407 771.9444 1179.5555 828.3889 1183.3977 840.4392 1213.5677 847.5375 1248.2345 862.056 1263.3456 836.2782 1283.3729 772.278 1209.8499 749.2623" style="fill:#dddfe1; stroke:#000; stroke-miterlimit:10;"/><polygon points="1317.5677 782.056 1303.3456 829.5733 1268.4567 819.9449 1283.3729 772.278 1317.5677 782.056" style="fill:#dddfe1; stroke:#000; stroke-miterlimit:10;"/><polyline points="1369.3116 799.1802 1362.8337 821.3172 1310.4567 805.8147 1317.5677 782.056 1369.3116 799.1802" style="fill:#dddfe1; stroke:#000; stroke-miterlimit:10;"/><polygon points="1369.3116 799.1802 1428.5326 817.7186 1412.1484 872.2668 1353.1234 854.5005 1369.3116 799.1802" style="fill:#dddfe1; stroke:#000; stroke-miterlimit:10;"/><polygon points="1141.6613 907.7294 1160.8148 918.4741 1144.3704 948.4741 1163.2593 959.5852 1131.7037 1018.2519 1104.2222 1009.6725 1094.1481 986.4444 1113.4185 919.2513 1125.7369 916.5811 1136.5016 911.6749 1141.6613 907.7294" style="fill:#dddfe1; stroke:#000; stroke-miterlimit:10;"/><polygon points="1194.4091 985.994 1183.037 1006.9186 1175.0864 1032.1334 1131.7037 1018.2519 1159.6802 966.2393 1194.4091 985.994" style="fill:#dddfe1; stroke:#000; stroke-miterlimit:10;"/><polygon points="1231.3032 1019.9621 1221.037 1001.1408 1194.4091 985.994 1183.037 1006.9186 1175.0864 1032.1334 1195.6418 1038.6486 1231.3032 1019.9621" style="fill:#dddfe1; stroke:#000; stroke-miterlimit:10;"/><polygon points="1099.2657 829.1677 1125.0435 837.1677 1117.3398 862.6492 1091.5621 855.2418 1099.2657 829.1677" style="fill:#dddfe1; stroke:#000; stroke-miterlimit:10;"/><polygon points="884.0065 709.1677 908.8954 716.8714 902.3769 739.3899 876.3028 731.0936 884.0065 709.1677" style="fill:#dddfe1; stroke:#000; stroke-miterlimit:10;"/><polygon points="664.8213 613.9825 689.488 621.7603 683.488 643.9825 658.1546 636.4269 664.8213 613.9825" style="fill:#dddfe1; stroke:#000; stroke-miterlimit:10;"/><polygon points="677.7102 569.7603 702.1546 577.5381 695.9324 599.9825 670.3769 592.4269 677.7102 569.7603" style="fill:#dddfe1; stroke:#000; stroke-miterlimit:10;"/><polygon points="310.6732 461.5381 334.9695 469.5381 328.7472 492.6492 303.5621 484.6492 310.6732 461.5381" style="fill:#dddfe1; stroke:#000; stroke-miterlimit:10;"/><polygon points="516.2287 573.8344 541.2658 581.6862 534.4509 604.0566 509.4139 596.501 516.2287 573.8344" style="fill:#dddfe1; stroke:#000; stroke-miterlimit:10;"/><polyline points="244.3083 452.9107 184.8889 435.4074 163.7778 505.4074" style="fill:none; stroke:#000; stroke-miterlimit:10;"/><line x1="122.2222" y1="452.4444" x2="174.7461" y2="469.0387" style="fill:none; stroke:#000; stroke-miterlimit:10;"/><polyline points="131.5926 418.7037 184.8889 435.4074 195.1852 401.4815 142.1481 384.5926" style="fill:none; stroke:#000; stroke-miterlimit:10;"/><polyline points="444.2222 458.5926 427.7778 511.2593 420.2222 509.2593 412.4444 535.4815" style="fill:none; stroke:#000; stroke-miterlimit:10;"/><line x1="472.4444" y1="466.8148" x2="449.5556" y2="542.8148" style="fill:none; stroke:#000; stroke-miterlimit:10;"/><line x1="593.7037" y1="509.4815" x2="575.037" y2="572.2963" style="fill:none; stroke:#000; stroke-miterlimit:10;"/><line x1="563.3333" y1="501.1852" x2="544.3704" y2="563.7037" style="fill:none; stroke:#000; stroke-miterlimit:10;"/><line x1="839.6296" y1="606.6667" x2="823.1852" y2="660.7407" style="fill:none; stroke:#000; stroke-miterlimit:10;"/><polyline points="790.0741 646.2222 797.037 624.2963 831.1143 634.6676" style="fill:none; stroke:#000; stroke-miterlimit:10;"/><line x1="884.4444" y1="639.4815" x2="891.7037" y2="615" style="fill:none; stroke:#000; stroke-miterlimit:10;"/><line x1="892.5991" y1="649.6224" x2="958.1852" y2="670.4815" style="fill:none; stroke:#000; stroke-miterlimit:10;"/><polyline points="924.3704 714.3333 934.8148 680.9815 954.3571 669.264" style="fill:none; stroke:#000; stroke-miterlimit:10;"/><polygon points="1176.7202 851.5966 1196.5308 854.9449 1213.1234 859.6461 1232.3826 867.0931 1250.1604 877.7597 1272.679 841.9115 1349.7778 865.3333 1353.1234 854.5005 1374.6649 860.9844 1343.79 961.019 1237.569 1016.6788 1225.5555 995.037 1144.3704 948.4741 1160.8148 918.4741 1141.6613 907.7294 1146.3855 904.1167 1155.3785 894.2384 1166.0123 877.4634 1171.4808 865.8428 1176.7202 851.5966" style="fill:#dddfe1; stroke:#000; stroke-miterlimit:10;"/><polygon points="1141.6613 907.7294 1136.5016 911.6749 1125.7369 916.5811 1113.4185 919.2513 1094.1481 986.4444 1104.2222 1009.6725 1131.7037 1018.2519 1163.2593 959.5852 1144.3704 948.4741 1160.8148 918.4741 1141.6613 907.7294" style="fill:#dddfe1; stroke:#000; stroke-miterlimit:10;"/></g><path d="m289.512,712.0397c0-8.7542-7.0967-15.851-15.851-15.851-1.9302,0-3.7715.3623-5.4823.994-1.1905-.6326-2.5472-.994-3.9893-.994-4.7042,0-8.5178,3.8135-8.5178,8.5178,0,1.7111.5093,3.301,1.3777,4.6357-2.3685,1.5395-3.9383,4.204-3.9383,7.2393,0,4.7684,3.8655,8.6339,8.6339,8.6339.8965,0,1.7609-.1369,2.5739-.3905,2.6217,1.9191,5.8442,3.0659,9.3422,3.0659,3.5651,0,6.8439-1.1913,9.4918-3.1778.197.0204.3968.0313.5992.0313,3.1812,0,5.76-2.5789,5.76-5.76,0-.9327-.2267-1.8107-.6203-2.5901.3954-1.3851.6203-2.8423.6203-4.3544Z" style="fill:#94b545; stroke-width:0px;"/><path d="m521.086,788.5964c-7.6418-4.2707-17.2989-1.5379-21.5696,6.1039-.9417,1.685-1.5237,3.469-1.8068,5.2706-1.133.7306-2.1103,1.7386-2.8139,2.9975-2.2949,4.1065-.8264,9.2958,3.28,11.5908,1.4936.8347,3.13,1.1658,4.7187,1.0588.1884,2.8186,1.7485,5.4888,4.3981,6.9695,4.1624,2.3262,9.4225.8377,11.7487-3.3247.4373-.7826.7396-1.6039.9148-2.4373,2.9543-1.3523,5.5274-3.6059,7.2339-6.6594,1.7392-3.112,2.2989-6.5554,1.8566-9.836.1139-.162.2209-.3311.3196-.5078,1.5519-2.7769.5589-6.2862-2.2181-7.8381-.8142-.455-1.6913-.6854-2.5636-.7221-1.0162-1.0209-2.1786-1.9281-3.4985-2.6658Z" style="fill:#94b545; stroke-width:0px;"/><path d="m892.1832,889.415c-8.7483.321-15.58,7.6733-15.259,16.4217.0708,1.9289.5004,3.7557,1.1944,5.4422-.5885,1.2129-.8999,2.5819-.847,4.0231.1725,4.7011,4.1233,8.3722,8.8244,8.1997,1.7099-.0628,3.2801-.6301,4.582-1.5468,1.6253,2.3105,4.3456,3.7815,7.3789,3.6702,4.7652-.1749,8.4863-4.1796,8.3114-8.9447-.0329-.8959-.2014-1.7547-.4846-2.5578,1.8217-2.6903,2.8495-5.9527,2.7212-9.4484-.1307-3.5627-1.4415-6.7956-3.5238-9.3689.0131-.1976.0167-.3977.0093-.5999-.1167-3.179-2.7884-5.6616-5.9674-5.5449-.9321.0342-1.8012.293-2.5656.7149-1.3987-.3443-2.8632-.5156-4.3743-.4602Z" style="fill:#94b545; stroke-width:0px;"/><circle cx="259.4444" cy="679.3751" r="10.1111" style="fill:#94b545; stroke-width:0px;"/><circle cx="235.6241" cy="691.7986" r="10.1111" style="fill:#94b545; stroke-width:0px;"/><circle cx="486.9997" cy="793.3915" r="6.8121" style="fill:#94b545; stroke-width:0px;"/><circle cx="861.4412" cy="904.6168" r="6.8121" style="fill:#94b545; stroke-width:0px;"/></g></svg>