<svg width="27" height="27" viewBox="0 0 27 27" fill="none" xmlns="http://www.w3.org/2000/svg">
<path d="M23.3503 26.43H3.74031C2.96588 26.43 2.22316 26.1223 1.67555 25.5747C1.12795 25.0271 0.820313 24.2844 0.820313 23.51V3.89996C0.820308 3.12461 1.12762 2.38088 1.67494 1.83168C2.22226 1.28249 2.96496 0.972617 3.74031 0.969971H23.3503C24.1257 0.972617 24.8683 1.28249 25.4157 1.83168C25.963 2.38088 26.2703 3.12461 26.2703 3.89996V23.51C26.2703 23.8934 26.1948 24.2731 26.048 24.6274C25.9013 24.9817 25.6862 25.3036 25.4151 25.5747C25.1439 25.8459 24.822 26.061 24.4677 26.2077C24.1135 26.3544 23.7338 26.43 23.3503 26.43Z" fill="#DFF1FA"/>
<path d="M15.0692 19.9999C14.5627 19.9999 14.0768 19.7987 13.7186 19.4405C13.3605 19.0823 13.1592 18.5965 13.1592 18.0899C13.1584 17.786 13.234 17.4868 13.3792 17.2199L13.4992 16.9999L11.2892 14.4599L11.0892 14.5299C10.6924 14.6769 10.256 14.6769 9.85923 14.5299L9.65923 14.4599L7.65923 16.8499L7.75922 17.0299C7.95827 17.3972 8.03139 17.8197 7.96737 18.2326C7.90335 18.6454 7.70573 19.0259 7.40479 19.3157C7.10385 19.6055 6.71619 19.7886 6.30121 19.837C5.88624 19.8854 5.46683 19.7964 5.10727 19.5837C4.74771 19.3709 4.46782 19.0461 4.31051 18.6591C4.15319 18.272 4.12711 17.8441 4.23627 17.4408C4.34543 17.0375 4.58381 16.6812 4.91488 16.4263C5.24594 16.1715 5.65145 16.0322 6.06923 16.0299C6.27705 16.0346 6.48284 16.0718 6.67922 16.1399L6.87923 16.2099L8.87923 13.8299L8.78922 13.6399C8.63633 13.372 8.55699 13.0684 8.55922 12.7599C8.55922 12.2533 8.76046 11.7675 9.11866 11.4093C9.47685 11.0511 9.96266 10.8499 10.4692 10.8499C10.9758 10.8499 11.4616 11.0511 11.8198 11.4093C12.178 11.7675 12.3792 12.2533 12.3792 12.7599C12.3776 13.0635 12.3021 13.3621 12.1592 13.6299L12.0692 13.8099L14.2692 16.3599L14.4692 16.2899C14.6706 16.2133 14.8838 16.1727 15.0992 16.1699C15.2373 16.1724 15.3746 16.1891 15.5092 16.2199L15.7192 16.2699L19.6292 10.5599L19.5092 10.3799C19.2961 10.0673 19.1812 9.69821 19.1792 9.31991C19.1772 8.93975 19.2882 8.56755 19.4979 8.25049C19.7077 7.93344 20.0069 7.68579 20.3575 7.53893C20.7082 7.39208 21.0945 7.35262 21.4676 7.42557C21.8407 7.49852 22.1838 7.68061 22.4533 7.94872C22.7228 8.21684 22.9067 8.55892 22.9816 8.93163C23.0565 9.30435 23.019 9.6909 22.874 10.0423C22.729 10.3937 22.4829 10.6942 22.167 10.9056C21.851 11.117 21.4794 11.2299 21.0992 11.2299C20.9596 11.244 20.8189 11.244 20.6792 11.2299L20.4692 11.1799L16.5692 16.8999L16.6792 17.0699C16.8953 17.3848 17.0105 17.758 17.0092 18.1399C16.9935 18.6421 16.7816 19.1182 16.4189 19.4659C16.0562 19.8137 15.5717 20.0054 15.0692 19.9999ZM15.0692 17.0999C14.804 17.0999 14.5497 17.2053 14.3621 17.3928C14.1746 17.5803 14.0692 17.8347 14.0692 18.0999C14.0692 18.3651 14.1746 18.6195 14.3621 18.807C14.5497 18.9945 14.804 19.0999 15.0692 19.0999C15.3345 19.0999 15.5888 18.9945 15.7763 18.807C15.9639 18.6195 16.0692 18.3651 16.0692 18.0999C16.0692 17.8347 15.9639 17.5803 15.7763 17.3928C15.5888 17.2053 15.3345 17.0999 15.0692 17.0999ZM6.06923 16.9599C5.87145 16.9599 5.67811 17.0185 5.51366 17.1284C5.34921 17.2383 5.22103 17.3945 5.14534 17.5772C5.06966 17.7599 5.04986 17.961 5.08844 18.155C5.12703 18.349 5.22227 18.5272 5.36213 18.667C5.50198 18.8069 5.68015 18.9021 5.87414 18.9407C6.06812 18.9793 6.26918 18.9595 6.45191 18.8838C6.63464 18.8081 6.79082 18.6799 6.9007 18.5155C7.01058 18.351 7.06923 18.1577 7.06923 17.9599C7.06411 17.8277 7.03279 17.6978 6.97709 17.5777C6.92139 17.4577 6.84241 17.3499 6.74474 17.2606C6.64707 17.1713 6.53266 17.1023 6.40812 17.0575C6.28358 17.0128 6.1514 16.9932 6.01923 16.9999L6.06923 16.9599ZM10.4892 11.7699C10.224 11.7699 9.96966 11.8753 9.78212 12.0628C9.59459 12.2503 9.48923 12.5047 9.48923 12.7699C9.48923 13.0351 9.59459 13.2895 9.78212 13.477C9.96966 13.6645 10.224 13.7699 10.4892 13.7699C10.7544 13.7699 11.0088 13.6645 11.1963 13.477C11.3839 13.2895 11.4892 13.0351 11.4892 12.7699C11.4892 12.5047 11.3839 12.2503 11.1963 12.0628C11.0088 11.8753 10.7544 11.7699 10.4892 11.7699ZM21.1192 8.3299C20.854 8.3299 20.5996 8.43526 20.4121 8.62279C20.2246 8.81033 20.1192 9.06469 20.1192 9.3299C20.1192 9.59512 20.2246 9.84947 20.4121 10.037C20.5996 10.2245 20.854 10.3299 21.1192 10.3299C21.3844 10.3299 21.6388 10.2245 21.8263 10.037C22.0139 9.84947 22.1192 9.59512 22.1192 9.3299C22.1192 9.06469 22.0139 8.81033 21.8263 8.62279C21.6388 8.43526 21.3844 8.3299 21.1192 8.3299Z" fill="#26A3DB"/>
</svg>
